<svg width="46" height="46" viewBox="0 0 46 46" fill="none" xmlns="http://www.w3.org/2000/svg">
<circle cx="23" cy="23" r="23" fill="#B8FF20"/>
<path d="M38.5239 13.5827C37.4106 14.076 36.2146 14.4094 34.9573 14.56C36.2546 13.7837 37.2252 12.562 37.6879 11.1227C36.4691 11.8467 35.1351 12.3563 33.7439 12.6294C32.8084 11.6305 31.5693 10.9685 30.219 10.746C28.8687 10.5235 27.4827 10.7531 26.2763 11.399C25.0698 12.045 24.1103 13.0712 23.5468 14.3183C22.9833 15.5654 22.8473 16.9637 23.1599 18.296C20.6902 18.172 18.2741 17.5301 16.0685 16.4119C13.8629 15.2937 11.9171 13.7242 10.3573 11.8054C9.82393 12.7254 9.51727 13.792 9.51727 14.928C9.51667 15.9507 9.76851 16.9577 10.2504 17.8597C10.7324 18.7617 11.4295 19.5307 12.2799 20.0987C11.2936 20.0673 10.3291 19.8008 9.4666 19.3214V19.4014C9.4665 20.8357 9.96264 22.2259 10.8708 23.336C11.779 24.4462 13.0434 25.2079 14.4493 25.492C13.5343 25.7396 12.5751 25.7761 11.6439 25.5987C12.0406 26.8328 12.8133 27.9121 13.8538 28.6853C14.8943 29.4585 16.1505 29.8869 17.4466 29.9107C15.2464 31.6379 12.5291 32.5748 9.73193 32.5707C9.23644 32.5708 8.74137 32.5419 8.24927 32.484C11.0886 34.3096 14.3937 35.2785 17.7693 35.2747C29.1959 35.2747 35.4426 25.8107 35.4426 17.6027C35.4426 17.336 35.4359 17.0667 35.4239 16.8C36.639 15.9213 37.6878 14.8332 38.5213 13.5867L38.5239 13.5827Z" fill="white"/>
</svg>
